<?xml version="1.0" encoding="UTF-8"?>
<svg id="Layer_2" data-name="Layer 2" xmlns="http://www.w3.org/2000/svg" xmlns:xlink="http://www.w3.org/1999/xlink" viewBox="0 0 2440.33 773.62">
  <defs>
    <style>
      .cls-1 {
        fill: none;
      }

      .cls-2 {
        fill: #0c3b5d;
      }

      .cls-3 {
        fill: url(#radial-gradient-7);
      }

      .cls-4 {
        fill: url(#radial-gradient-6);
      }

      .cls-5 {
        fill: url(#radial-gradient-5);
      }

      .cls-6 {
        fill: url(#radial-gradient-4);
      }

      .cls-7 {
        fill: url(#radial-gradient-9);
      }

      .cls-8 {
        fill: url(#radial-gradient-8);
      }

      .cls-9 {
        fill: url(#radial-gradient-3);
      }

      .cls-10 {
        fill: url(#radial-gradient-2);
      }

      .cls-11 {
        fill: url(#radial-gradient);
      }

      .cls-12 {
        fill: #7b868c;
      }

      .cls-13 {
        fill: url(#radial-gradient-16);
      }

      .cls-14 {
        fill: url(#radial-gradient-12);
      }

      .cls-15 {
        fill: url(#radial-gradient-14);
      }

      .cls-16 {
        fill: url(#radial-gradient-13);
      }

      .cls-17 {
        fill: url(#radial-gradient-10);
      }

      .cls-18 {
        fill: url(#radial-gradient-11);
      }

      .cls-19 {
        fill: url(#radial-gradient-15);
      }
    </style>
    <radialGradient id="radial-gradient" cx="2306.21" cy="743.6" fx="2306.21" fy="743.6" r="693.44" gradientTransform="translate(0 776.54) scale(1 -1)" gradientUnits="userSpaceOnUse">
      <stop offset="0" stop-color="#fefefe"/>
      <stop offset=".47" stop-color="#b0b6ba"/>
      <stop offset="1" stop-color="#7b868c"/>
    </radialGradient>
    <radialGradient id="radial-gradient-2" cx="2306.21" cy="743.78" fx="2306.21" fy="743.78" r="693.62" xlink:href="#radial-gradient"/>
    <radialGradient id="radial-gradient-3" cx="2306.03" cy="743.6" fx="2306.03" fy="743.6" r="693.62" xlink:href="#radial-gradient"/>
    <radialGradient id="radial-gradient-4" cx="2306.21" cy="743.78" fx="2306.21" fy="743.78" r="693.8" xlink:href="#radial-gradient"/>
    <radialGradient id="radial-gradient-5" cx="2306.21" fx="2306.21" r="693.44" xlink:href="#radial-gradient"/>
    <radialGradient id="radial-gradient-6" cx="2306.21" cy="743.6" fx="2306.21" fy="743.6" r="693.44" xlink:href="#radial-gradient"/>
    <radialGradient id="radial-gradient-7" cx="2306.21" cy="743.6" fx="2306.21" fy="743.6" r="693.44" xlink:href="#radial-gradient"/>
    <radialGradient id="radial-gradient-8" cx="2306.21" cy="743.6" fx="2306.21" fy="743.6" r="693.62" xlink:href="#radial-gradient"/>
    <radialGradient id="radial-gradient-9" cx="2306.21" cy="743.6" fx="2306.21" fy="743.6" r="693.44" xlink:href="#radial-gradient"/>
    <radialGradient id="radial-gradient-10" cx="2306.03" fx="2306.03" r="693.44" xlink:href="#radial-gradient"/>
    <radialGradient id="radial-gradient-11" cx="2306.03" cy="743.6" fx="2306.03" fy="743.6" r="693.44" xlink:href="#radial-gradient"/>
    <radialGradient id="radial-gradient-12" cx="2306.21" cy="743.6" fx="2306.21" fy="743.6" r="693.62" xlink:href="#radial-gradient"/>
    <radialGradient id="radial-gradient-13" cx="-27000.49" cy="4652.52" fx="-27000.49" fy="4652.52" r="627.55" gradientTransform="translate(1141.37 538.41) rotate(-152.51) scale(1 -1)" xlink:href="#radial-gradient"/>
    <radialGradient id="radial-gradient-14" cx="-26993.07" cy="4651.79" fx="-26993.07" fy="4651.79" r="627.37" gradientTransform="translate(1141.37 538.41) rotate(-152.51) scale(1 -1)" xlink:href="#radial-gradient"/>
    <radialGradient id="radial-gradient-15" cx="-26991.44" cy="4652.15" fx="-26991.44" fy="4652.15" r="627.37" gradientTransform="translate(1141.37 538.41) rotate(-152.51) scale(1 -1)" xlink:href="#radial-gradient"/>
    <radialGradient id="radial-gradient-16" cx="-26982.39" cy="4651.61" fx="-26982.39" fy="4651.61" r="627.01" gradientTransform="translate(1141.37 538.41) rotate(-152.51) scale(1 -1)" xlink:href="#radial-gradient"/>
  </defs>
  <g id="Layer_2-2" data-name="Layer 2">
    <g id="Layer_1-2" data-name="Layer 1-2">
      <g id="Artwork_66" data-name="Artwork 66">
        <g id="Artwork_66-2" data-name="Artwork 66-2">
          <g>
            <path class="cls-2" d="M1064.5,768.92v-265.72h45.98v265.72h-45.98Z"/>
            <g>
              <g>
                <path class="cls-2" d="M137.75,773.44C54.66,773.44,0,714.25,0,636.42s57.02-137.75,137.02-137.75c46.34,0,74.76,12.85,102.09,36.02l-29.69,35.3c-20.45-17.38-40.55-28.42-74.39-28.42-49.05,0-86.16,42.54-86.16,94.12,0,55.03,36.02,95.21,90.32,95.21,24.98,0,47.79-7.96,64.08-20.09v-49.78h-67.88v-40.55h113.13v111.68c-26.25,22.44-63.71,41.45-110.78,41.45v-.18Z"/>
                <path class="cls-2" d="M285.63,768.92v-265.72h45.98v265.72h-45.98Z"/>
                <path class="cls-2" d="M460.66,773.44c-61.18,0-106.25-46.7-106.25-104.08s45.61-105.16,106.98-105.16,106.61,46.7,106.61,104.44-45.61,104.8-107.34,104.8ZM460.66,604.56c-36.74,0-60.28,28.78-60.28,64.08s25.52,64.98,61.18,64.98,60.82-28.78,60.82-64.08-25.52-64.98-61.54-64.98h-.18Z"/>
                <path class="cls-2" d="M703.75,773.08c-32.94,0-53.94-16.65-67.88-35.3v31.13h-45.98v-265.72h45.98v98.65c14.84-20.82,35.66-37.65,67.88-37.65,47.42,0,93.4,37.65,93.4,104.44s-45.61,104.44-93.4,104.44ZM693.08,604.2c-31.13,0-58.47,25.52-58.47,64.44s27.33,64.62,58.47,64.62,57.38-24.62,57.38-64.62-26.25-64.44-57.38-64.44Z"/>
                <path class="cls-2" d="M979.97,768.92v-33.49c-14.84,20.82-35.66,37.65-68.42,37.65-47.06,0-93.04-37.65-93.04-104.44s45.25-104.44,93.04-104.44c32.94,0,53.94,16.65,68.42,35.3v-24.25h45.98v193.68s-45.98,0-45.98,0ZM922.59,604.2c-31.5,0-57.74,24.25-57.74,64.44s26.61,64.62,57.74,64.62,58.1-25.52,58.1-64.62-27.33-64.44-58.1-64.44Z"/>
                <path class="cls-12" d="M1153.19,768.92v-265.72h188.97v18.28h-169.24v104.44h152.23v18.28h-152.23v106.61h171.23v18.28h-190.96v-.18Z"/>
                <path class="cls-12" d="M1522.99,768.92l-68.42-86.16-68.42,86.16h-22.44l79.28-98.65-76.38-94.85h23.17l65.34,82,65.34-82h22.44l-76.38,94.49,79.28,99.01h-23.17.36Z"/>
                <path class="cls-12" d="M1644.99,773.44c-55.75,0-98.65-46.34-98.65-100.64v-.72c0-54.3,43.26-101.36,98.65-101.36,36.38,0,59.19,16.65,77.47,35.66l-13.21,13.58c-16.65-17.01-35.66-31.86-64.62-31.86-43.98,0-78.19,36.74-78.19,83.08v.72c0,46.7,35.3,83.81,79.64,83.81,27.33,0,48.51-14.12,64.98-32.22l12.85,11.4c-19.73,22.44-43.26,38.37-78.92,38.37v.18Z"/>
                <path class="cls-12" d="M1828.35,756.07c30.05,0,50.5-13.21,66.43-30.41l12.85,11.4c-19.73,21.18-42.9,36.38-80.19,36.38-50.86,0-94.85-40.55-94.85-101v-.72c0-56.11,39.46-101,91.95-101s88.87,43.98,88.87,101.36v.72c0,2.72,0,3.8-.36,6.88h-160.55c3.44,48.15,38.01,76.38,75.84,76.38ZM1893.33,663.03c-2.72-39.1-24.98-75.12-69.51-75.12-38.37,0-67.88,32.22-71.32,75.12h140.82Z"/>
                <path class="cls-12" d="M1945.28,768.92v-265.72h18.64v265.72h-18.64Z"/>
              </g>
              <g>
                <path class="cls-11" d="M2323.77,505.37c-13.76,8.33-29.69,16.83-48.15,25.34.72,17.74.36,36.2-1.45,55.57,18.64-7.78,34.57-15.75,48.51-23.35,1.63-20.09,1.99-39.1,1.09-57.38v-.18Z"/>
                <path class="cls-10" d="M2248.65,462.29c-4.34,1.99-8.87,4.16-13.21,6.15-4.53,1.99-9.05,3.98-13.58,5.97-4.53,1.81-9.23,3.8-13.94,5.61-4.71,1.81-9.41,3.62-14.3,5.43,1.09,4.89,1.99,9.59,3.08,14.3.91,4.71,1.81,9.41,2.53,14.12.91,4.71,1.63,9.41,2.35,13.94.72,4.71,1.27,9.23,1.81,13.76,4.89-1.63,9.59-3.26,14.3-5.07s9.41-3.44,14.12-5.25,9.23-3.62,13.76-5.43c4.53-1.81,9.05-3.62,13.39-5.61-.54-4.71-1.09-9.41-1.81-14.3-.72-4.71-1.45-9.59-2.35-14.48-.91-4.89-1.81-9.59-2.9-14.48-1.09-4.89-2.17-9.77-3.26-14.66"/>
                <path class="cls-9" d="M2156.33,416.86c-4.53,1.63-9.23,3.44-13.94,5.07-4.71,1.63-9.23,3.08-13.94,4.71-4.71,1.45-9.23,2.9-13.94,4.34-4.71,1.45-9.23,2.72-13.94,3.98,1.09,4.34,2.17,8.69,3.26,13.03,1.09,4.53,1.99,8.87,3.08,13.21,1.09,4.34,1.99,8.87,3.08,13.39.91,4.53,1.99,8.87,2.9,13.39,0,.36,0,.54.18.91v.91c0,.36,0,.54.18.91v.91c4.89-1.27,9.77-2.53,14.66-3.8,4.89-1.45,9.77-2.72,14.66-4.16s9.77-2.9,14.48-4.53c4.89-1.63,9.77-3.26,14.66-4.89v-.91c0-.36,0-.72-.18-.91,0-.36,0-.54-.18-.91,0-.36,0-.54-.18-.91-1.09-4.53-2.17-9.05-3.44-13.58-1.09-4.53-2.35-9.05-3.62-13.39-1.27-4.53-2.53-8.87-3.8-13.39-1.27-4.53-2.53-8.87-3.98-13.21"/>
                <path class="cls-6" d="M2099.5,512.79c-4.89,1.09-9.77,2.17-14.66,3.08-4.89,1.09-9.77,1.99-14.66,2.9s-9.77,1.81-14.48,2.53c-4.89.91-9.77,1.63-14.48,2.35.72,4.71,1.45,9.23,2.17,13.76s1.45,9.05,2.17,13.58,1.45,8.87,2.17,13.21,1.45,8.69,1.99,13.21c4.89-.72,9.77-1.45,14.66-2.17,4.89-.72,9.77-1.63,14.66-2.35,4.89-.91,9.77-1.81,14.66-2.72,4.89-.91,9.77-1.99,14.66-2.9-.54-4.34-1.27-8.69-1.99-13.21-.72-4.34-1.27-8.87-2.17-13.39-.72-4.53-1.45-9.05-2.35-13.76-.91-4.53-1.63-9.23-2.53-13.94"/>
                <path class="cls-5" d="M2187.29,563.47c-4.89,1.45-9.77,2.9-14.84,4.34-4.89,1.45-9.96,2.72-14.84,3.98-4.89,1.27-9.77,2.53-14.84,3.8-4.89,1.27-9.77,2.35-14.66,3.44.54,4.34.91,8.69,1.45,12.85s.91,8.51,1.27,12.67c.36,4.16.72,8.33.91,12.31.36,4.16.54,8.15.72,12.13,4.71-1.09,9.41-1.99,14.3-3.08,4.89-1.09,9.59-2.17,14.3-3.44,4.71-1.09,9.59-2.35,14.3-3.62,4.71-1.27,9.59-2.53,14.3-3.98v-12.49c0-4.16-.18-8.51-.36-12.85-.18-4.16-.36-8.51-.72-13.03-.36-4.34-.72-8.69-1.09-13.21"/>
                <path class="cls-4" d="M2331.37,305.18c-2.71,2.9-5.43,5.97-8.33,8.87s-5.79,5.79-8.69,8.69c-3.08,2.9-5.97,5.79-9.23,8.51-3.08,2.72-6.34,5.43-9.59,8.33,2.17,4.34,4.34,8.87,6.34,13.39s3.98,9.23,5.97,13.76,3.8,9.23,5.61,13.94c1.81,4.71,3.44,9.59,5.07,14.3,0,.36.18.72.36.91,0,.36.18.72.36.91,0,.36.18.54.36.91,0,.36,0,.72.36.91,3.62-2.72,7.06-5.25,10.32-7.96,3.44-2.72,6.7-5.43,9.96-8.15,3.26-2.9,6.34-5.61,9.59-8.51,3.08-2.9,5.97-5.79,8.87-8.69,0-.36-.18-.72-.36-1.09,0-.36-.18-.72-.36-1.09,0-.36-.18-.72-.36-.91,0-.36-.18-.72-.36-1.09-1.81-4.89-3.62-9.77-5.61-14.66-1.99-4.89-3.98-9.59-6.15-14.3-2.17-4.71-4.34-9.23-6.7-13.94-2.35-4.53-4.71-9.05-7.24-13.58"/>
                <path class="cls-3" d="M2283.4,348.98c-3.44,2.53-6.88,5.07-10.5,7.78-3.62,2.53-7.24,4.89-10.86,7.42-3.62,2.35-7.42,4.89-11.4,7.24-3.8,2.35-7.78,4.71-11.77,6.88,1.81,4.53,3.62,8.87,5.25,13.39,1.81,4.53,3.44,9.05,5.07,13.58,1.63,4.53,3.08,9.23,4.71,13.76,1.45,4.71,2.9,9.23,4.34,13.94,0,.36.18.72.18.91,0,.36,0,.72.36.91,0,.36,0,.54.18.91,0,.36.18.54.18.91,4.16-2.17,8.33-4.53,12.49-6.7,4.16-2.35,8.15-4.71,12.13-7.06,3.98-2.35,7.78-4.71,11.58-7.24,3.8-2.35,7.6-4.89,11.22-7.42,0-.36-.18-.72-.36-.91,0-.36-.18-.72-.36-.91,0-.36-.18-.72-.36-.91,0-.36-.18-.72-.36-.91-1.63-4.71-3.26-9.59-4.89-14.12-1.63-4.71-3.44-9.41-5.25-13.94s-3.8-9.23-5.79-13.76-3.98-8.87-6.15-13.39"/>
                <path class="cls-8" d="M2403.05,336.49c-1.99,3.26-3.98,6.52-6.15,9.59-2.17,3.26-4.34,6.34-6.7,9.41-2.35,3.08-4.89,6.15-7.42,9.23s-5.25,5.97-7.96,9.05c1.63,5.43,3.08,10.68,4.34,16.11,1.27,5.43,2.35,10.86,3.44,16.29s1.99,10.86,2.71,16.29c.72,5.43,1.45,10.86,1.81,16.29,2.9-2.72,5.61-5.61,8.15-8.33,2.71-2.9,5.07-5.61,7.6-8.51,2.35-2.9,4.71-5.79,6.88-8.69,2.17-2.9,4.34-5.97,6.34-8.87-.54-5.79-1.09-11.4-1.81-17.2-.72-5.61-1.63-11.4-2.71-17.01-1.09-5.61-2.35-11.22-3.8-16.83-1.45-5.61-2.9-11.22-4.71-16.65"/>
                <path class="cls-7" d="M2364.67,384.64c-2.9,2.9-5.97,5.61-9.05,8.51s-6.34,5.61-9.59,8.33c-3.26,2.72-6.7,5.43-10.14,8.15-3.44,2.72-7.06,5.25-10.5,7.78,1.45,5.25,2.71,10.32,3.8,15.39,1.09,5.07,2.17,10.32,3.26,15.39.91,5.07,1.81,10.14,2.53,15.2.72,5.07,1.45,10.14,1.81,15.2,3.62-2.35,7.24-4.89,10.68-7.24,3.62-2.53,6.88-5.07,10.32-7.42,3.44-2.53,6.7-5.07,9.77-7.6,3.26-2.72,6.34-5.25,9.23-7.96-.54-5.25-1.09-10.68-1.81-15.93-.72-5.25-1.63-10.68-2.53-15.93-1.09-5.25-2.17-10.68-3.44-15.93-1.27-5.25-2.71-10.68-4.34-15.93"/>
                <path class="cls-17" d="M2437.8,378.12c-.54,3.08-1.27,6.15-2.17,9.23-.91,3.08-1.81,6.15-3.08,9.23-1.09,3.08-2.53,6.15-3.98,9.05-1.45,3.08-3.08,5.97-4.71,8.87,0,5.79,0,11.77-.36,17.56-.18,5.79-.72,11.77-1.45,17.56-.72,5.79-1.45,11.77-2.35,17.56-.91,5.79-2.17,11.77-3.44,17.56,1.45-2.35,2.9-4.71,3.98-6.88,1.27-2.35,2.35-4.71,3.44-7.06s1.99-4.89,2.71-7.06c.72-2.35,1.45-4.89,1.99-7.24l3.26-15.02c1.09-5.25,1.99-10.68,2.71-15.93.72-5.25,1.45-10.5,1.99-15.93.54-5.25.91-10.5,1.09-15.93.18-5.25.36-10.5.36-15.75"/>
                <path class="cls-18" d="M2417.17,425c-1.99,2.9-3.98,5.79-6.34,8.51-2.17,2.9-4.53,5.61-6.88,8.33-2.53,2.9-4.89,5.43-7.6,8.33-2.53,2.72-5.25,5.43-8.15,8.15v16.29c0,5.43-.54,10.86-.91,16.11-.54,5.43-1.09,10.68-1.81,16.11-.72,5.43-1.63,10.68-2.71,15.93,2.71-2.35,5.25-4.71,7.78-7.06s4.89-4.71,7.24-7.06c2.35-2.35,4.53-4.89,6.52-7.24,2.17-2.53,3.98-4.89,5.97-7.42,1.27-5.61,2.35-11.4,3.26-17.2.91-5.79,1.63-11.4,2.35-17.2.54-5.79,1.09-11.4,1.27-17.2.36-5.79.36-11.4.36-17.2"/>
                <path class="cls-14" d="M2377.89,467.54c-2.9,2.53-6.15,5.07-9.23,7.6-3.08,2.53-6.34,5.07-9.77,7.42-3.26,2.35-6.7,4.89-10.32,7.24-3.44,2.35-7.06,4.71-10.68,7.06.18,5.07.36,10.14.18,15.02,0,5.07-.18,9.96-.36,15.02-.36,5.07-.72,9.96-1.27,14.84-.54,4.89-1.27,9.77-1.99,14.66,3.44-1.99,6.88-3.98,10.14-6.15,3.26-1.99,6.7-4.16,9.77-6.34,3.26-2.17,6.34-4.34,9.41-6.52s5.97-4.34,8.87-6.7c1.09-5.07,1.81-10.32,2.53-15.57.72-5.25,1.27-10.5,1.63-15.75.36-5.25.72-10.5.91-15.75v-15.93"/>
                <g>
                  <path class="cls-16" d="M1657.3,149.51c3.62-3.8,7.42-7.6,11.4-11.4,3.98-3.8,8.15-7.6,12.67-11.4,4.34-3.8,9.05-7.6,13.94-11.4,4.89-3.8,9.77-7.42,15.02-11.22-.91,4.53-1.81,9.05-2.53,13.76s-1.45,9.77-1.81,14.84c-.54,5.07-.91,10.32-1.27,15.75s-.36,11.04-.54,16.83v4.71c-5.61,3.8-10.86,7.42-15.93,11.22s-9.96,7.6-14.66,11.4c-4.71,3.8-9.05,7.6-13.39,11.4-4.16,3.8-8.33,7.6-12.13,11.4v-4.71c.18-5.61.72-11.22,1.09-16.65.54-5.43,1.09-10.68,1.99-15.75.72-5.07,1.63-10.14,2.72-14.84,1.09-4.89,2.17-9.41,3.44-14.12"/>
                  <path class="cls-15" d="M1604.26,296.49c1.81-3.62,3.8-7.42,5.97-11.04,2.17-3.8,4.53-7.42,7.06-11.22s5.25-7.42,8.33-11.22c2.9-3.8,6.15-7.6,9.41-11.4,0,6.34.54,12.67.91,19.19.54,6.52,1.27,13.03,1.99,19.55.91,6.7,1.81,13.21,2.9,19.91,1.27,6.7,2.53,13.58,3.98,20.27-3.44,3.44-6.52,6.88-9.59,10.5-2.9,3.44-5.79,6.88-8.33,10.32s-5.07,6.88-7.24,10.32-4.34,6.88-6.15,10.14c-1.45-6.34-2.72-12.85-3.8-19.19-1.09-6.34-1.99-12.67-2.9-19.01-.72-6.34-1.45-12.49-1.81-18.82-.36-6.15-.72-12.31-.72-18.46"/>
                  <path class="cls-19" d="M1725.9,180.1c6.15-3.62,12.49-7.06,18.82-10.5,6.52-3.44,13.03-6.7,19.73-9.96,6.7-3.26,13.58-6.34,20.63-9.41,7.06-3.08,14.3-5.97,21.54-8.87.72,6.7,1.45,13.58,2.17,20.63.91,7.06,1.81,14.12,2.72,21.36,1.09,7.24,2.17,14.66,3.44,22.26,1.27,7.6,2.53,15.02,3.98,22.81-7.24,2.72-14.48,5.43-21.72,8.33-7.06,2.9-14.12,5.79-20.82,8.69-6.88,2.9-13.58,6.15-20.09,9.23-6.52,3.08-12.85,6.34-19.01,9.77-1.45-7.42-2.9-14.66-4.16-21.9-1.27-7.24-2.35-14.3-3.26-21.36-.91-7.06-1.81-13.94-2.53-20.82-.72-6.88-1.27-13.58-1.63-20.09"/>
                  <path class="cls-13" d="M1664.36,343.19c3.98-3.44,8.15-6.7,12.49-10.14,4.34-3.44,8.87-6.7,13.76-10.14,4.89-3.44,9.77-6.7,15.02-9.96,5.25-3.26,10.68-6.7,16.47-9.96,1.81,7.42,3.8,15.02,5.97,22.44,2.17,7.6,4.34,15.2,6.7,22.81,2.35,7.6,4.89,15.2,7.6,22.99,2.72,7.6,5.43,15.39,8.33,22.99-5.43,2.72-10.68,5.61-15.75,8.51-5.07,2.9-9.96,5.61-14.48,8.51-4.71,2.9-9.05,5.79-13.39,8.69-4.16,2.9-8.15,5.79-12.13,8.69-3.08-7.24-6.15-14.3-9.05-21.54-2.9-7.06-5.43-14.3-8.15-21.36-2.53-7.06-4.89-14.3-7.06-21.36s-4.34-14.12-6.15-21.18"/>
                </g>
              </g>
              <g id="GEM_Color_FR" data-name="GEM Color FR">
                <g>
                  <path class="cls-2" d="M1877.04,92.49c7.78-2.17,15.75-4.16,23.71-6.15,7.96-1.99,15.93-3.8,24.07-5.43v-5.07c-.72-5.79-1.63-11.4-2.35-17.01-.72-5.43-1.45-10.68-1.99-15.75-.72-4.89-1.27-9.77-1.81-14.3s-1.09-8.87-1.45-13.03c-7.42,1.63-15.02,3.44-22.44,5.25-7.42,1.81-14.84,3.8-22.08,5.97s-14.48,4.34-21.54,6.7-14.12,4.89-21.18,7.42c0,4.16-.18,8.69-.36,13.39v14.48c0,5.07.36,10.32.72,15.75.18,5.43.54,11.04,1.09,17.01v5.07c7.42-2.53,15.02-5.07,22.63-7.6,7.6-2.35,15.39-4.71,23.17-6.88l-.18.18Z"/>
                  <path class="cls-2" d="M1948,38.01c.91,5.07,1.63,10.14,2.53,15.57s1.81,11.04,2.72,17.01c0,.36,0,.91.18,1.27v1.27c0,.36,0,.72.18,1.27,0,.36,0,.91.18,1.27,8.15-1.45,16.29-2.53,24.62-3.8,8.15-1.09,16.47-2.17,24.62-3.08,8.15-.91,16.47-1.63,24.62-2.17s16.29-1.09,24.44-1.45c0-.36,0-.72-.18-1.27,0-.36,0-.91-.18-1.27,0-.36-.18-.72-.36-1.27,0-.36,0-.72-.36-1.27-1.27-5.79-2.72-11.4-3.98-16.83s-2.72-10.5-3.98-15.57c-1.27-4.89-2.72-9.59-3.98-14.12s-2.72-8.69-3.98-12.85c-7.6.36-15.2.72-22.81,1.27-7.6.54-15.2,1.27-22.99,2.17-7.6.91-15.2,1.81-22.99,2.9-7.6,1.09-15.2,2.35-22.81,3.62.72,4.16,1.27,8.51,2.17,13.03.72,4.53,1.45,9.41,2.35,14.3Z"/>
                  <path class="cls-2" d="M2071.26,27.15c1.45,4.89,2.9,10.14,4.53,15.57,1.45,5.43,2.9,11.04,4.34,16.83,0,.36,0,.72.36,1.27,0,.36.18.72.36,1.27,0,.36.18.72.36,1.27,0,.36.18.72.18,1.27,8.15,0,16.11,0,23.89.36,7.96.18,15.75.54,23.53,1.09s15.39,1.09,22.99,1.81c7.6.72,15.02,1.63,22.44,2.53,0-.36-.18-.72-.36-1.27,0-.36-.18-.91-.36-1.27,0-.36-.18-.72-.36-1.27,0-.36-.18-.72-.36-1.27-1.81-5.79-3.62-11.4-5.61-16.83-1.81-5.43-3.8-10.5-5.79-15.39-1.99-4.89-3.98-9.59-5.97-14.12s-4.16-8.69-6.34-12.85c-6.88-.91-13.94-1.81-21-2.72-7.06-.72-14.3-1.45-21.54-1.99s-14.66-.91-22.08-1.09c-7.42-.18-14.84-.36-22.44-.36,1.63,4.16,3.08,8.33,4.53,12.85,1.45,4.53,3.08,9.23,4.53,14.12l.18.18Z"/>
                  <path class="cls-2" d="M2196.7,181.91c-3.98-32.94-9.77-62.45-16.11-87.97-30.23-3.8-62.09-5.43-93.94-5.43,5.97,27.51,11.04,57.02,15.2,88.87,32.22-.72,63.9.72,94.85,4.34v.18Z"/>
                  <path class="cls-2" d="M2186.92,37.47c2.17,4.89,4.16,9.96,6.15,15.39,1.99,5.43,3.98,11.04,5.97,16.83,0,.36.18.91.36,1.27,0,.36.18.91.36,1.27,0,.36.18.91.36,1.27,0,.36.18.72.36,1.27,7.06,1.27,14.12,2.72,21,4.34,6.88,1.45,13.58,3.08,20.09,4.89,6.52,1.81,13.03,3.62,19.19,5.61s12.31,3.98,18.28,6.34c0-.36-.36-.72-.36-1.09s-.36-.91-.54-1.27c0-.36-.36-.72-.54-1.27,0-.36-.18-.72-.36-1.27-2.17-5.79-4.34-11.22-6.7-16.65-2.35-5.25-4.71-10.5-7.24-15.39-2.53-4.89-5.07-9.59-7.6-14.12s-5.25-8.87-7.96-13.03c-5.61-2.17-11.4-4.34-17.38-6.34s-11.95-3.8-18.1-5.61-12.49-3.44-19.01-4.89c-6.52-1.63-13.03-3.08-19.73-4.34,2.35,4.16,4.53,8.33,6.7,12.85s4.34,9.23,6.52,14.12l.18-.18Z"/>
                  <path class="cls-2" d="M2283.58,67.33c2.53,4.89,5.07,9.96,7.42,15.39,2.35,5.43,4.71,10.86,6.88,16.47,0,.36.36.72.54,1.27,0,.36.36.72.36,1.27,0,.36.36.72.54,1.09,0,.36.36.72.54,1.27,5.43,2.35,10.86,5.07,15.93,7.6,5.25,2.72,10.14,5.43,15.02,8.15,4.71,2.9,9.41,5.79,13.94,8.69,4.34,2.9,8.69,6.15,12.67,9.23,0-.36-.36-.72-.54-1.09,0-.36-.36-.72-.54-1.09,0-.36-.36-.72-.54-1.09,0-.36-.36-.72-.54-1.09-2.35-5.61-4.89-11.04-7.42-16.29s-5.25-10.32-7.96-15.2c-2.71-4.89-5.61-9.59-8.51-14.12s-5.97-8.87-9.05-13.21c-3.98-3.26-7.96-6.15-12.31-9.23-4.16-3.08-8.69-5.97-13.21-8.69-4.53-2.9-9.41-5.61-14.3-8.15-4.89-2.72-10.14-5.25-15.39-7.6,2.9,4.16,5.61,8.51,8.33,13.03s5.43,9.23,7.96,14.12l.18-.72Z"/>
                  <path class="cls-2" d="M2353.63,113.31c2.9,4.89,5.43,9.96,8.15,15.2,2.53,5.25,5.07,10.68,7.42,16.29,0,.36.36.72.54,1.09,0,.36.36.72.54,1.09,0,.36.36.72.36,1.09.18.36.36.72.54,1.09,2.17,1.99,4.16,3.98,5.97,5.97,1.99,1.99,3.8,3.98,5.61,5.97,1.81,1.99,3.62,4.16,5.25,6.15,1.63,1.99,3.26,4.16,4.89,6.34,1.09,1.45,2.17,3.08,3.08,4.53s1.99,3.08,2.9,4.53,1.81,3.08,2.71,4.53c.91,1.45,1.63,3.08,2.53,4.53,0-.36-.36-.72-.54-1.09,0-.36-.36-.72-.54-1.09,0-.36-.36-.72-.54-1.09,0-.36-.36-.72-.54-1.09-.72-1.45-1.27-2.9-1.99-4.34-.54-1.45-1.27-2.9-1.99-4.16-.72-1.45-1.27-2.9-1.99-4.16-.72-1.45-1.27-2.72-1.99-4.16-9.23-16.83-22.63-38.55-32.94-54.66l-6.88-9.23c-1.27-1.81-2.71-3.62-4.16-5.43-1.45-1.81-2.9-3.44-4.53-5.25-1.45-1.81-3.26-3.44-4.89-5.25-1.63-1.81-3.26-3.44-5.07-5.07h0c3.08,4.16,6.34,8.69,9.23,13.21,3.08,4.53,5.97,9.23,8.69,14.12l.18.36Z"/>
                  <path class="cls-2" d="M2022.03,182.09c8.33-.91,16.83-1.63,25.16-2.17s16.65-1.09,24.98-1.45c-1.09-8.15-2.17-15.93-3.44-23.89-1.09-7.78-2.35-15.39-3.62-22.99-1.27-7.42-2.53-14.84-3.8-22.08-1.27-7.06-2.72-14.12-3.98-21-8.15.36-16.47.72-24.8,1.45-8.33.54-16.65,1.27-24.98,2.17-8.33.91-16.65,1.81-24.98,2.9-8.33,1.09-16.65,2.35-24.8,3.8,1.09,6.88,2.17,13.76,3.26,21,1.09,7.24,2.35,14.48,3.44,21.9,1.09,7.42,2.35,15.2,3.62,22.81,1.27,7.78,2.35,15.75,3.62,23.71,8.33-1.27,16.65-2.53,25.16-3.62,8.33-1.09,16.83-1.99,25.16-2.9v.36Z"/>
                  <path class="cls-2" d="M2264.76,194.22c6.52,1.63,13.03,3.26,19.55,5.07,6.34,1.81,12.49,3.62,18.46,5.61-.72-7.6-1.63-15.2-2.72-22.81-1.09-7.42-2.17-14.84-3.62-22.08-1.27-7.24-2.9-14.12-4.53-21.18-1.63-6.88-3.44-13.58-5.43-20.27-5.97-2.17-12.13-4.34-18.46-6.15-6.34-1.99-12.85-3.8-19.55-5.61s-13.39-3.44-20.27-4.89c-6.88-1.45-13.94-2.9-21.18-4.16,1.81,6.7,3.44,13.58,4.89,20.63,1.63,7.06,2.9,14.3,4.34,21.72,1.27,7.42,2.53,14.84,3.62,22.63,1.09,7.78,2.17,15.57,3.08,23.35,7.24,1.09,14.3,2.35,21.36,3.62,6.88,1.45,13.76,2.9,20.45,4.34v.18Z"/>
                  <path class="cls-2" d="M2339.69,219.2c5.25,2.35,10.32,4.89,15.02,7.42,4.89,2.53,9.41,5.07,13.94,7.78,4.34,2.72,8.69,5.43,12.67,8.33-.54-7.24-1.45-14.48-2.35-21.54-.91-7.06-2.17-14.12-3.44-21-1.27-6.88-2.9-13.76-4.53-20.27s-3.62-13.21-5.61-19.55c-3.98-3.08-8.33-6.15-12.85-9.05-4.34-2.9-9.05-5.79-13.94-8.51-4.89-2.72-9.96-5.43-15.02-8.15-5.25-2.53-10.68-5.07-16.11-7.6,1.99,6.52,3.8,13.21,5.43,20.09,1.63,6.88,3.08,13.94,4.53,21,1.27,7.24,2.53,14.48,3.62,21.72,1.09,7.42,1.81,14.84,2.71,22.63,5.61,2.17,10.86,4.53,16.11,6.88l-.18-.18Z"/>
                  <path class="cls-2" d="M2392.55,231.87c.91,7.06,1.81,14.12,2.35,21.36,2.17,1.81,4.16,3.44,5.97,5.43,1.99,1.81,3.8,3.62,5.61,5.43,1.81,1.81,3.44,3.62,5.25,5.61,1.63,1.81,3.26,3.8,4.71,5.79,1.09,1.27,1.99,2.72,3.08,3.98,1.09,1.45,1.99,2.72,2.9,4.16.91,1.27,1.81,2.72,2.53,3.98.91,1.45,1.63,2.72,2.35,4.16-.54-6.88-1.27-13.39-2.17-20.09-.91-6.7-1.99-13.21-3.26-19.73-1.27-6.52-2.71-12.85-4.34-19.19-1.63-6.34-3.44-12.49-5.43-18.64-.72-1.45-1.63-3.08-2.53-4.53-.72-1.45-1.63-2.9-2.53-4.53-.91-1.45-1.99-3.08-2.9-4.53s-1.99-2.9-3.08-4.53c-1.63-1.99-3.08-4.16-4.89-6.34-1.63-1.99-3.44-4.16-5.25-6.15-1.81-1.99-3.8-3.98-5.61-5.97-1.99-1.99-3.98-3.98-6.15-5.79,1.99,6.34,3.98,12.85,5.61,19.37,1.63,6.52,3.26,13.21,4.53,20.09,1.27,6.88,2.35,13.76,3.44,20.63h-.18Z"/>
                  <path class="cls-2" d="M1955.24,273.68c-1.45-8.51-2.9-17.01-4.34-25.52-1.45-8.51-2.9-16.83-4.16-24.98-8.15,1.63-16.29,3.26-24.44,4.89-8.15,1.81-16.11,3.62-24.07,5.61-7.96,1.99-15.75,3.98-23.53,6.15s-15.39,4.53-22.99,6.7c1.63,8.15,3.26,16.11,5.07,24.25,1.81,8.15,3.62,16.47,5.43,24.8,1.99,8.33,3.8,16.65,5.97,24.98,1.99,8.33,4.16,16.83,6.34,25.34,7.24-1.99,14.48-3.98,21.9-5.79,7.42-1.81,14.84-3.62,22.44-5.25,7.42-1.63,15.02-3.26,22.81-4.89,7.6-1.45,15.39-2.9,22.99-4.34-1.63-8.69-3.08-17.56-4.53-26.25-1.45-8.69-3.08-17.38-4.53-25.88l-.36.18Z"/>
                  <path class="cls-2" d="M2081.76,259.38c-.91-8.69-1.81-17.38-2.72-25.88-.91-8.51-1.81-17.01-2.9-25.34-8.33.36-16.47.91-24.8,1.45s-16.65,1.27-24.98,2.17c-8.33.91-16.65,1.81-24.98,2.72-8.33,1.09-16.65,2.17-24.98,3.44,1.27,8.33,2.53,16.65,3.98,25.16,1.27,8.51,2.72,17.01,3.98,25.7,1.27,8.69,2.72,17.38,3.98,26.06,1.45,8.69,2.72,17.56,4.16,26.43,7.78-1.09,15.75-2.17,23.53-3.08,7.78-.91,15.75-1.81,23.53-2.53,7.96-.72,15.75-1.45,23.53-1.99,7.78-.54,15.57-.91,23.35-1.45-.72-8.87-1.45-17.74-2.17-26.61-.72-8.87-1.63-17.56-2.53-26.43v.18Z"/>
                  <path class="cls-2" d="M2201.22,236.76c-.36-8.51-1.09-16.83-1.63-24.98-7.42-.91-15.02-1.63-22.63-2.17s-15.39-1.09-23.17-1.45c-7.78-.36-15.75-.54-23.71-.72h-24.25c.91,8.33,1.81,16.83,2.72,25.34.91,8.51,1.63,17.2,2.35,25.88.72,8.69,1.45,17.56,1.99,26.43.54,8.87,1.09,17.74,1.63,26.61h22.81c7.6,0,15.02.18,22.44.54,7.42.18,14.66.54,21.9,1.09,7.24.36,14.3.91,21.36,1.63,0-8.87.18-17.56,0-26.25,0-8.69-.18-17.38-.54-26.06-.18-8.51-.54-17.2-1.09-25.52l-.18-.36Z"/>
                  <path class="cls-2" d="M2286.48,227.71c-6.34-1.63-12.67-3.26-19.37-4.89-6.7-1.45-13.39-2.9-20.27-4.16-6.88-1.27-13.94-2.35-21-3.62.54,8.15,1.09,16.47,1.45,24.8.36,8.51.72,16.83.72,25.34v25.88c0,8.69-.36,17.38-.72,26.06,6.7.91,13.39,1.81,19.91,2.9s12.85,2.17,19.19,3.44c6.15,1.27,12.31,2.53,18.28,3.8,5.97,1.45,11.77,2.9,17.38,4.34.91-8.51,1.63-16.83,2.17-25.16.54-8.33.91-16.65,1.27-24.98.18-8.33.36-16.47.36-24.62s-.36-16.11-.72-24.07c-5.97-1.81-12.13-3.62-18.28-5.43l-.36.36Z"/>
                  <path class="cls-2" d="M2370.1,261.37c-4.34-2.53-9.05-5.07-13.76-7.6-4.89-2.35-9.77-4.71-14.84-7.06-5.25-2.35-10.5-4.53-16.11-6.52.36,7.78.54,15.75.54,23.71s-.18,16.11-.54,24.25c-.36,8.15-.91,16.29-1.45,24.62-.72,8.33-1.45,16.47-2.53,24.8,5.25,1.63,10.32,3.62,15.2,5.43,4.89,1.81,9.59,3.8,14.12,5.79s8.87,3.98,13.03,6.15,8.15,4.34,11.95,6.52c1.27-7.78,2.53-15.75,3.44-23.53.91-7.78,1.81-15.57,2.35-23.35.54-7.78.91-15.39,1.09-22.99.18-7.6.18-15.2,0-22.63-3.98-2.72-8.15-5.43-12.49-7.96v.36Z"/>
                  <path class="cls-2" d="M2427.84,337.22c.36-7.06.54-13.94.36-21-.72-1.27-1.45-2.72-2.35-3.98s-1.63-2.72-2.53-3.98-1.81-2.53-2.9-3.98c-.91-1.27-1.99-2.53-3.08-3.98-1.45-1.81-3.08-3.62-4.71-5.43-1.63-1.81-3.44-3.62-5.07-5.43-1.81-1.81-3.62-3.44-5.61-5.25s-3.98-3.44-5.97-5.07v22.26c-.36,7.6-.72,15.02-1.27,22.63-.72,7.6-1.45,15.2-2.53,22.81-1.09,7.78-2.17,15.39-3.62,22.99,1.99,1.45,3.8,2.9,5.79,4.34,1.81,1.45,3.62,2.9,5.25,4.34s3.26,3.08,4.89,4.53c1.63,1.45,3.08,3.08,4.53,4.71,1.09,1.09,1.99,2.17,2.9,3.26s1.81,2.17,2.71,3.26c.91,1.09,1.81,2.17,2.53,3.26s1.45,2.17,2.17,3.26c1.45-7.06,2.9-14.3,3.98-21.54,1.09-7.06,1.99-14.3,2.71-21.36.72-7.06,1.27-14.12,1.63-21.18l.18.54Z"/>
                  <path class="cls-2" d="M2439.79,351.88c-.18-2.72-.72-5.43-1.27-7.96-.54-2.72-1.09-5.43-1.99-7.96-.72-2.72-1.81-5.43-2.71-7.96,0,6.88,0,13.76-.54,20.45-.36,6.88-.91,13.76-1.63,20.82-.72,6.88-1.63,13.94-2.71,20.82-1.09,7.06-2.53,13.94-3.98,21,1.27,2.72,2.35,5.43,3.26,8.15.91,2.72,1.45,5.43,1.99,8.15.54,2.72.91,5.43,1.09,8.15.18,2.72.18,5.43,0,8.15,1.09-4.53,1.99-9.23,2.9-13.76.91-4.53,1.63-9.23,2.35-13.76.72-4.53,1.27-9.23,1.81-13.76s.91-9.23,1.09-13.76v-2.9l.91-25.34c0-2.72,0-5.25-.36-7.96l-.18-.54Z"/>
                </g>
              </g>
            </g>
            <g>
              <path class="cls-12" d="M2056.78,733.26h0c0-3.08-.91-5.61-2.72-7.42-2.35-2.35-5.97-3.62-10.5-3.62h-15.39v34.39h6.52v-11.95h7.24l8.33,11.95h7.78l-9.23-13.03c4.71-1.27,7.96-4.71,7.96-10.32ZM2034.7,739.05v-10.86h8.51c4.34,0,6.88,1.81,6.88,5.25h0c0,3.44-2.53,5.61-6.88,5.61,0,0-8.51,0-8.51,0Z"/>
              <path class="cls-12" d="M2041.58,707.56c-18.46,0-32.94,15.02-32.94,32.76h0c0,18.1,14.3,32.76,32.76,32.76s32.94-15.02,32.94-32.76h0c0-18.1-14.3-32.76-32.76-32.76ZM2067.28,740.32c0,14.3-11.22,26.06-26.07,26.06s-25.88-11.58-25.88-25.88h0c0-14.48,11.22-26.25,26.07-26.25s25.88,11.58,25.88,25.88h0v.18Z"/>
              <polygon class="cls-1" points="2111.99 739.05 2098.59 718.78 2091.71 718.78 2091.71 760.95 2099.14 760.95 2099.14 732.53 2110.72 749.55 2111.26 750.27 2112.89 750.27 2124.84 732.53 2124.84 760.95 2132.26 760.95 2132.26 718.78 2125.56 718.78 2111.99 739.05"/>
              <path class="cls-1" d="M2155.61,718.78h-15.02v42.17h15.02c12.85,0,22.26-8.87,22.26-21.18s-9.41-21-22.26-21ZM2155.61,753.89h-7.78v-28.06h7.78c8.69,0,14.84,5.79,14.84,14.12s-6.15,13.94-14.84,13.94Z"/>
            </g>
          </g>
        </g>
      </g>
    </g>
  </g>
</svg>